<svg width="227" height="211" viewBox="0 0 227 211" fill="none" xmlns="http://www.w3.org/2000/svg">
<path d="M0 199.529V210.812H58.3097V199.529H54.8111C51.7012 199.529 48.6886 199.43 45.7731 199.232C42.8576 198.836 40.5252 198.143 38.7759 197.154C37.221 195.966 36.4435 194.58 36.4435 192.997V16.3305L85.2218 170.444L114.377 118.862L79.3011 0H0V11.2829H3.20703C6.31688 11.2829 9.23237 11.5798 11.9535 12.1736C14.869 12.5695 17.1042 13.5593 18.6591 15.1428C20.4084 16.5284 21.283 18.6069 21.283 21.3781V184.98C21.283 188.543 20.4084 191.413 18.6591 193.591C17.1042 195.768 14.869 197.352 11.9535 198.341C9.23237 199.133 6.31688 199.529 3.20703 199.529H0Z" fill="#BFCBC2"/>
<path d="M211.334 190.621C212.599 194.58 214.417 197.153 216.787 198.341C219.158 199.331 222.004 199.825 225.324 199.825H226.51V210.812H162.728V199.825H166.521C169.05 199.825 171.5 199.728 173.871 199.53C176.4 199.332 178.455 199.034 180.036 198.638C181.774 198.045 182.644 197.451 182.645 196.858V138.363H123.763L91.832 193.888C91.8321 195.075 92.3058 196.165 93.2542 197.155C94.3605 197.946 96.0202 198.639 98.2325 199.233C100.445 199.629 103.292 199.825 106.769 199.825H112.222V210.812H65.0376V199.825H66.6971C70.1747 199.825 73.2584 198.738 75.9456 196.56C78.7907 194.185 91.6735 175.032 93.2542 169.49L139.769 84.1266L184.227 0H211.334V190.621ZM130.679 125.595H182.645L186.004 23.506L130.679 125.595Z" fill="#BFCBC2"/>
</svg>
